<svg width="8" height="4" viewBox="0 0 8 4" fill="none" xmlns="http://www.w3.org/2000/svg">
<path d="M6.28715 3.06653C6.53824 3.06653 6.77929 3.06653 7.02035 3.06653C6.80198 2.69867 6.4898 2.39317 6.11462 2.18018C5.73944 1.96719 5.31424 1.85409 4.881 1.85203C4.46282 1.85174 4.05516 1.72315 3.71486 1.48419C3.37457 1.24524 3.11862 0.907837 2.98271 0.519043C2.25896 0.724339 1.55621 0.995397 0.883545 1.32871H1.07438C1.60714 1.32871 2.11808 1.53677 2.4948 1.90712C2.87151 2.27746 3.08315 2.77976 3.08315 3.30351C3.08813 3.39889 3.08813 3.49447 3.08315 3.58986C4.1091 3.22235 5.19543 3.04491 6.28715 3.06653Z" fill="#D22856"/>
</svg>
