<svg width="10" height="10" viewBox="0 0 10 10" fill="none" xmlns="http://www.w3.org/2000/svg">
<path d="M9.92034 4.91682C9.32727 4.91812 8.73977 4.8044 8.19147 4.58219C7.64317 4.35997 7.14484 4.03361 6.72501 3.6218C6.30518 3.20999 5.9721 2.72081 5.74484 2.18228C5.51758 1.64375 5.4006 1.06644 5.4006 0.483398C5.39794 1.66012 4.92058 2.78776 4.07325 3.6189C3.22593 4.45005 2.07783 4.91683 0.880859 4.91682C2.07875 4.91943 3.22683 5.3884 4.07387 6.22111C4.92091 7.05383 5.39795 8.18249 5.4006 9.36012C5.4006 8.18168 5.87678 7.05151 6.7244 6.21823C7.57202 5.38495 8.72163 4.91682 9.92034 4.91682Z" fill="#283645"/>
</svg>
